# xmcd
#
# Track frame offsets:
#	150
#	25357
#	35843
#	48482
#	69236
#	81382
#	92152
#	103224
#	114112
#	126379
#	138668
#	158119
#	168821
#	189891
#	201237
#
# Disc length: 2847 seconds
#
# Revision: 0
# Processed by: cddbd v1.5.2PL0 Copyright (c) Steve Scherf et al.
# Submitted via: audiograbber 1.83.01
#
DISCID=d00b1d0f
DTITLE=Various Artist - Mirão The Gold Hits 2 2007
DYEAR=2007
DGENRE=Soundtrack
TTITLE0=John Lee Hooker e Jim Morrison - Roadhouse Blues
TTITLE1=Fast Domino - Blue Monday
TTITLE2=Chuck Berry - Hail Hail Rock and Roll
TTITLE3=John Prine - Killing The Blues
TTITLE4=Chuck Berry - Jhonny B Goode
TTITLE5=Marcelo Watanabe - Rockin´All Over The World
TTITLE6=Chuck Berry - Roll Over Beethoven
TTITLE7=Fast Domino - Blueberry Hill
TTITLE8=Jerry Lee Lewis - Stagger Lee
TTITLE9=Chuck Berry - You Can Never Tell
TTITLE10=Jerry Lee Lewis and Van Morrison - Goodnight Irene
TTITLE11=Chuck Berry - Maybelline
TTITLE12=Johnny Cash, Emmylou Harris - One More Shot (Jesse James)
TTITLE13=Little Richard - Lucille
TTITLE14=Chuck Berry - Run Rudolph
EXTD=
EXTT0=
EXTT1=
EXTT2=
EXTT3=
EXTT4=
EXTT5=
EXTT6=
EXTT7=
EXTT8=
EXTT9=
EXTT10=
EXTT11=
EXTT12=
EXTT13=
EXTT14=
PLAYORDER=
